<svg version="1.1" id="XMLID_1_" xmlns="http://www.w3.org/2000/svg" x="0" y="0" viewBox="0 0 160 60" xml:space="preserve" shape-rendering="geometricPrecision"><style>.st0{fill:#fff}</style><path class="st0" d="M137.9 13.4v.4h1.3l-1.6 9.6-1.7-10h-1.2l-1.5 10.3-1.4-9.9h1.3v-.4h-4.5v.4h1l2 12.6h1.6l1.4-8 1.5 8h1.6l2-12.6h1.3v-.4zm-16.3 13V26h1.2V13.8h-1.3v-.4h6.7v2.9h-.3c-.1-.9-.2-2-1.2-2.4-.4-.1-1.7 0-1.7 0v5.3s1 .1 1.3-.2c.4-.3.6-.9.6-1.4h.3v3.8h-.2c-.1-.7-.1-1.3-.6-1.7-.3-.2-1.3-.1-1.3-.1v6.3s.9 0 1.3-.1c.5-.1 1-.5 1.2-1 .2-.6.3-2 .3-2h.3v3.4h-6.6zm-.8 0h-4.7V26h1.3V13.8h-1.1v-.4h4.5v.4h-1.3V26h1.3zm-5.5-12.6L113 26.4h-2.1l-2.5-12.5h-.6v-.4h4.2v.4h-1.2l2 11.3 2-11.3h-1.1v-.4h2.3v.4h-.7zm-14.4 12.6V26h.9V13.8h-1v-.4h6.5v3.1h-.3c-.1-1-.1-2.1-1.1-2.6-.4-.2-1.4-.1-1.8-.1v5.5s1.1.1 1.4-.1c.5-.4.6-1.1.6-1.7h.4v3.9h-.3c-.1-.6-.2-1.2-.7-1.6-.3-.1-1.4-.1-1.4-.1v6.2c.8 0 2.5-.1 2.9-1.1.2-.6.2-1.1.2-1.8h.4v3.4h-6.7zm-.3-.4v.4h-2.8c-.2-.2-.1-.5-.2-.8-.1-.7-.7-4.2-1.3-5.2-.2-.4-1-.6-1.6-.6h-.3V26h1.2v.4h-4.8V26h1.4V13.9h-1.3v-.4h5.2c1 0 1.8.5 2.4 1.4.6.8.5 2.3.1 3.1-.5 1.1-1.7 1.6-2.8 1.7 1 .1 2 .5 2.5 1.5.8 1.5.9 3.2 1.5 4.8h.8m-3.9-8.2c.1-1.3.2-2.9-.8-3.8-.3-.2-1.1-.2-1.5-.2v5.5s1.1.1 1.4-.1c.7-.1.8-.8.9-1.4m-17 8.6V26H81V13.8h-1.2v-.4h4.8v.4h-1.4V26h1.7c.6-.1 1-.7 1.2-1.2.1-.5.2-1.1.1-1.7h.4v3.2h-6.9zm-4.8 0V26h1.3l-.8-4h-2.6l-.7 4h1.2v.4h-2.8V26h1l2.2-12.5h2L78.5 26h.8v.4h-4.4zm-.7-4.9h1.1l-1.4-6.2-1 6.2h1.3zm-8.8 4.9V26h1.2V13.8h-1.1v-.4h4.6v.4H69V26h1.1v.4zm-.8 0h-.4c-.1-.3 0-.5-.3-.7-.4 0-.6.5-.9.6-.8.6-2 .2-2.8-.2-2.5-1.7-3-4.8-2.7-7.7.2-1.9 1.3-3.7 3-4.7.7-.4 1.9-.5 2.6-.1.3.1.5.5.9.4.1-.1.1-.3.1-.5h.3v3.6H64c-.1-1.1 0-2.4-1.1-3-.5-.3-1.4-.4-1.9.1-.8.8-1.1 1.9-1.3 3-.3 1.9-.3 3.1 0 5.5.1 1.1.5 2.4 1.2 3.2.3.3 1.2.4 1.6.2 1.5-.9 1.3-1.8 1.4-2.8h.5l.2 3.1zm-6.9-12.6h-1.1v12.6h-1.5l-4.2-10.7V26h1.2v.4h-2.9V26h1.2V13.8h-1.1v-.4h3.1l3.6 9.1v-8.7h-1v-.4h2.7zm-13 12.6V26h1.2l-.9-4.1h-2.4l-.7 4.1h1.3v.4h-3.1V26h1.2l2.2-12.5h2.1L48.3 26h.6v.4h-4.2zm.2-5l-1.3-5.7-1 5.7h2.3zm-4.1-7.6h-1.1v12.6H38l-4-10.5V26h1.3v.4h-3V26h1.2V13.8h-1.2v-.4h3.3l3.6 9.3v-8.9h-1.1v-.4h2.7zm-9.1-.4v.4h-1.2v12.1h1.2v.4h-4.9v-.4h1.5V13.8H27v-.4h4.7zm-5 3.6h-.3c-.1-.9-.1-1.9-.7-2.6-.5-.6-1.7-.6-2.4-.6v5.5h1.2c.6 0 .7-1.3.7-1.9h.5v4h-.4c0-.6-.1-1.7-.7-1.7h-1.2V26h1.4v.4h-5.3V26H21V13.9h-1.7v-.4h7.3V17z"/><path fill="none" stroke="#fff" stroke-miterlimit="10" d="M137.7 33.7H19"/><path class="st0" d="M19.3 43.8c0-.9.3-1.6.9-2.1.6-.5 1.3-.8 2.2-.8 1.1 0 1.9.5 2.4 1.4l-1 .5c-.1-.2-.3-.4-.6-.6-.2-.2-.5-.2-.8-.2-.5 0-.9.2-1.3.5-.3.4-.5.8-.5 1.3s.2 1 .5 1.3c.3.4.8.5 1.3.5.3 0 .5-.1.8-.2l.6-.6 1 .5c-.5.9-1.3 1.4-2.4 1.4-.9 0-1.6-.3-2.2-.8-.6-.6-.9-1.3-.9-2.1zm6.7 2.1c-.6-.6-.8-1.3-.8-2.1 0-.9.3-1.6.8-2.1.6-.5 1.3-.8 2.1-.8.9 0 1.6.3 2.1.8.6.6.8 1.3.8 2.1s-.3 1.6-.8 2.1c-.6.6-1.3.8-2.1.8s-1.5-.3-2.1-.8zm.9-3.5c-.3.4-.5.8-.5 1.3s.2 1 .5 1.3c.3.4.7.5 1.3.5.5 0 .9-.2 1.3-.5.3-.4.5-.8.5-1.3s-.2-1-.5-1.3c-.3-.4-.7-.5-1.3-.5-.5 0-1 .2-1.3.5zm5.1 4.2v-5.7h2.7c.6 0 1.1.2 1.4.5.3.3.5.8.5 1.3s-.1.8-.4 1.1c-.2.3-.5.5-.9.6l1.3 2.2h-1.4l-1.1-2h-.9v2H32zm1.2-3.1h1.3c.2 0 .4-.1.6-.2.2-.1.2-.3.2-.6 0-.2-.1-.4-.2-.6-.2-.1-.4-.2-.6-.2h-1.3v1.6zm4.3 3.1v-5.7h2.7c.6 0 1.1.2 1.4.5.3.4.5.8.5 1.3s-.2 1-.5 1.3c-.3.4-.8.5-1.4.5h-1.5v2h-1.2zm1.2-3.1H40c.2 0 .4-.1.6-.2.2-.1.2-.3.2-.6 0-.2-.1-.4-.2-.6-.2 0-.4-.1-.6-.1h-1.3v1.5zm4.7 2.4c-.6-.6-.8-1.3-.8-2.1 0-.9.3-1.6.8-2.1.6-.5 1.3-.8 2.1-.8.9 0 1.6.3 2.1.8.6.6.8 1.3.8 2.1s-.3 1.6-.8 2.1c-.6.6-1.3.8-2.1.8s-1.5-.3-2.1-.8zm.9-3.5c-.3.4-.5.8-.5 1.3s.2 1 .5 1.3c.3.4.7.5 1.3.5.5 0 .9-.2 1.3-.5.3-.4.5-.8.5-1.3s-.2-1-.5-1.3c-.3-.4-.7-.5-1.3-.5-.6 0-1 .2-1.3.5zm5.1 4.2v-5.7H52c.6 0 1.1.2 1.4.5.3.3.5.8.5 1.3s-.1.8-.4 1.1c-.2.3-.5.5-.9.6l1.3 2.2h-1.4l-1.1-2h-.9v2h-1.1zm1.2-3.1h1.3c.2 0 .4-.1.6-.2.2-.1.2-.3.2-.6 0-.2-.1-.4-.2-.6-.2-.1-.4-.2-.6-.2h-1.3v1.6zm3.6 3.1l2.2-5.7H58l2.2 5.7h-1.4l-.4-1H56l-.4 1h-1.4zm2.1-2h1.8l-.9-2.5-.9 2.5zm3.5-2.6v-1.1h4.5V42h-1.7v4.6h-1.2V42h-1.6zm5.3 4.6v-5.7h4V42h-2.8v1.2h2.8v1.1h-2.8v1.3h2.8v1.1h-4zm6.8-.8l.7-.9c.5.5 1.1.8 1.8.8.3 0 .6-.1.7-.2.2-.1.3-.3.3-.5s-.1-.3-.2-.4c-.2-.1-.4-.2-.6-.2-.2-.1-.5-.1-.8-.2-.3-.1-.6-.2-.8-.3s-.4-.3-.6-.5c-.2-.2-.2-.5-.2-.9 0-.5.2-.9.6-1.2.4-.3.9-.5 1.6-.5.9 0 1.7.3 2.2.8l-.7.9c-.5-.4-1-.6-1.7-.6-.3 0-.4.1-.6.2-.1.1-.2.2-.2.4 0 .1.1.2.2.3.2.1.4.2.6.2.2.1.5.1.8.2.3.1.5.2.8.3.2.1.4.3.6.5.2.2.2.5.2.9 0 .5-.2 1-.6 1.3-.4.3-1 .5-1.7.5-1 0-1.8-.3-2.4-.9zm5.5-1.5v-3.4h1.2v3.4c0 .4.1.7.4 1 .2.2.6.4 1 .4s.8-.1 1-.4c.2-.2.3-.6.3-1v-3.4h1.2v3.4c0 .7-.2 1.3-.7 1.7-.4.4-1.1.6-1.9.6-.8 0-1.5-.2-1.9-.6-.4-.4-.6-.9-.6-1.7zm6.2 2.3v-5.7h3c.5 0 .9.1 1.2.4.3.3.4.6.4 1 0 .3-.1.6-.3.9-.2.2-.4.4-.7.4.3 0 .6.2.8.5.2.3.3.6.3.9 0 .5-.1.8-.4 1.1-.3.3-.7.4-1.2.4h-3.1zm1.3-3.4h1.5c.2 0 .4-.1.5-.2.1-.1.2-.3.2-.4 0-.2-.1-.3-.2-.4-.2-.2-.3-.2-.5-.2h-1.5v1.2zm0 2.4h1.6c.2 0 .4-.1.5-.2.1-.1.2-.3.2-.5s-.1-.3-.2-.5c-.1-.1-.3-.2-.5-.2h-1.6v1.4zm4 .2l.7-.9c.5.5 1.1.8 1.8.8.3 0 .6-.1.7-.2.2-.1.3-.3.3-.5s-.1-.3-.2-.4c-.2-.1-.4-.2-.6-.2-.2-.1-.5-.1-.8-.2-.3-.1-.6-.2-.8-.3s-.4-.3-.6-.5c-.2-.2-.2-.5-.2-.9 0-.5.2-.9.6-1.2.4-.3.9-.5 1.6-.5.9 0 1.7.3 2.2.8l-.7.9c-.5-.4-1-.6-1.7-.6-.3 0-.4.1-.6.2-.1.1-.2.2-.2.4 0 .1.1.2.2.3.2.1.4.2.6.2.2.1.5.1.8.2.3.1.5.2.8.3.2.1.4.3.6.5.2.2.2.5.2.9 0 .5-.2 1-.6 1.3-.4.3-1 .5-1.7.5-1 0-1.8-.3-2.4-.9zm5.3-2c0-.9.3-1.6.9-2.1.6-.5 1.3-.8 2.2-.8 1.1 0 1.9.5 2.4 1.4l-1 .5c-.1-.2-.3-.4-.6-.6-.2-.2-.5-.2-.8-.2-.5 0-.9.2-1.3.5-.3.4-.5.8-.5 1.3s.2 1 .5 1.3c.3.4.8.5 1.3.5.3 0 .5-.1.8-.2l.6-.6 1 .5c-.5.9-1.3 1.4-2.4 1.4-.9 0-1.6-.3-2.2-.8-.7-.6-.9-1.3-.9-2.1zm6.1 2.8v-5.7h2.7c.6 0 1.1.2 1.4.5.3.3.5.8.5 1.3s-.1.8-.4 1.1c-.2.3-.5.5-.9.6l1.3 2.2h-1.4l-1.1-2h-.9v2h-1.2zm1.2-3.1h1.3c.2 0 .4-.1.6-.2.2-.1.2-.3.2-.6 0-.2-.1-.4-.2-.6-.2-.1-.4-.2-.6-.2h-1.3v1.6zm4.3 3.1v-5.7h1.2v5.7h-1.2zm2.3 0v-5.7h2.7c.6 0 1.1.2 1.4.5.3.4.5.8.5 1.3s-.2 1-.5 1.3c-.3.4-.8.5-1.4.5h-1.5v2h-1.2zm1.2-3.1h1.3c.2 0 .4-.1.6-.2.2-.1.2-.3.2-.6 0-.2-.1-.4-.2-.6-.2-.1-.4-.2-.6-.2h-1.3v1.6zm3.8-1.5v-1.1h4.5V42H116v4.6h-1.2V42h-1.7zm5.3 4.6v-5.7h1.2v5.7h-1.2zm2.9-.7c-.6-.6-.8-1.3-.8-2.1 0-.9.3-1.6.8-2.1.6-.5 1.3-.8 2.1-.8.9 0 1.6.3 2.1.8.6.6.8 1.3.8 2.1s-.3 1.6-.8 2.1c-.6.6-1.3.8-2.1.8s-1.5-.3-2.1-.8zm.9-3.5c-.3.4-.5.8-.5 1.3s.2 1 .5 1.3c.3.4.7.5 1.3.5.5 0 .9-.2 1.3-.5.3-.4.5-.8.5-1.3s-.2-1-.5-1.3c-.3-.4-.7-.5-1.3-.5-.6 0-1 .2-1.3.5zm5.1 4.2v-5.7h1.2l2.6 3.6v-3.6h1.2v5.7h-1.2l-2.7-3.7v3.7h-1.1zm5.8-.8l.7-.9c.5.5 1.1.8 1.8.8.3 0 .6-.1.7-.2.2-.1.3-.3.3-.5s-.1-.3-.2-.4c-.2-.1-.4-.2-.6-.2-.2-.1-.5-.1-.8-.2-.3-.1-.6-.2-.8-.3s-.4-.3-.6-.5c-.2-.2-.2-.5-.2-.9 0-.5.2-.9.6-1.2.4-.3.9-.5 1.6-.5.9 0 1.7.3 2.2.8l-.7.9c-.5-.4-1-.6-1.7-.6-.3 0-.4.1-.6.2-.1.1-.2.2-.2.4 0 .1.1.2.2.3.2.1.4.2.6.2.2.1.5.1.8.2.3.1.5.2.8.3.2.1.4.3.6.5.2.2.2.5.2.9 0 .5-.2 1-.6 1.3-.4.3-1 .5-1.7.5-1 0-1.8-.3-2.4-.9z"/></svg>