<svg xmlns="http://www.w3.org/2000/svg" viewBox="0 0 250.91 68.83"><path fill="#fff" d="M244.59.31l-.01.81h2.59l-3.1 19.69L240.5.31h-2.56l-3.09 21.04-2.9-20.23h2.87V.31h-9.28v.81h1.98l4.04 25.85 3.33-.01 2.83-16.36 3.1 16.37h3.28l4.19-25.85h2.62V.31h-6.32zm-33.51 26.68v-.85h2.56v-25h-2.72V.3h13.79v6H224c-.25-1.92-.37-4.1-2.37-5a28.1 28.1 0 0 0-3.43-.1v11s2 .28 2.69-.4a4 4 0 0 0 1.16-2.84h.7v7.83h-.65c-.22-1.37-.3-2.74-1.2-3.42a7.62 7.62 0 0 0-2.7-.3v13a25.33 25.33 0 0 0 2.68-.12 4 4 0 0 0 2.46-2 22.59 22.59 0 0 0 .59-4h.69v7.03zm-1.63-.04h-9.71l-.01-.86h2.68V1.13h-2.23V.31h9.13v.82h-2.58l-.01 24.96h2.73v.86zM198.14 1.13l-4.75 25.8H189l-5.05-25.8h-1.31V.3h8.57v.82h-2.41s4.07 23.3 4.13 23.3L197 1.14h-2.29V.3h4.75v.82zm-29.7 25.86v-.84h1.89v-25h-2.09V.3h13.4v6.4h-.71c-.12-2-.25-4.4-2.31-5.33a14.24 14.24 0 0 0-3.7-.18v11.24s2.24.18 2.89-.25c1.1-.8 1.24-2.25 1.3-3.46h.74v8.08h-.65a4.45 4.45 0 0 0-1.34-3.2 12.61 12.61 0 0 0-2.94-.3v12.8c1.65 0 5.1-.11 6.06-2.3a12.63 12.63 0 0 0 .45-3.8h.75v7zm-.64-.86v.86H162a3.59 3.59 0 0 1-.35-1.54c-.23-1.4-1.39-8.7-2.68-10.75-.51-.84-2.1-1.26-3.2-1.33h-.57V26.1h2.44v.88h-9.84v-.84h2.78v-25H148v-.8h10.77a6.28 6.28 0 0 1 5 2.79c1.19 1.67 1 4.64.24 6.4-1.11 2.36-3.54 3.25-5.84 3.5a6.48 6.48 0 0 1 5.23 3c1.57 3.17 1.95 6.59 3.1 9.94a3 3 0 0 0 1.33.17m-7.91-16.77c.14-2.6.31-6-1.62-7.9a8.11 8.11 0 0 0-3.13-.34v11.33a12.3 12.3 0 0 0 3-.13c1.19-.46 1.58-1.82 1.8-3M124.9 26.92v-.84h2.51V1.13H125V.3h9.8v.82h-2.89v25h3.5a3.67 3.67 0 0 0 2.44-2.36 12.65 12.65 0 0 0 .29-3.5h.86v6.69zm-9.9 0v-.83h2.6l-1.68-8.15h-5.33l-1.41 8.15h2.47v.84h-5.72v-.84h2.14L112.57.3h4.19l5.64 25.77h1.6v.84zm-1.57-10h2.23l-2.8-12.67-2.08 12.66zm-17.93 10v-.84h2.47V1.13h-2.32V.31h9.46l.01.82h-2.4v24.95h2.29l-.01.84h-9.5zm-1.66 0h-.73c-.12-.56 0-1.11-.55-1.44-.77.05-1.16 1.05-1.87 1.25-1.66 1.26-4 .38-5.67-.4-5.22-3.55-6.12-9.88-5.53-15.9A12.56 12.56 0 0 1 85.67.77a6 6 0 0 1 5.38-.25c.65.13 1 1 1.76.8a1.26 1.26 0 0 0 .31-1h.7v7.44H93c-.19-2.31-.08-4.84-2.23-6.25a3.62 3.62 0 0 0-3.89.12c-1.64 1.58-2.25 3.84-2.6 6.12a38.74 38.74 0 0 0-.1 11.34 12.63 12.63 0 0 0 2.49 6.52 3.39 3.39 0 0 0 3.29.4c3-1.9 2.64-3.72 2.94-5.8h1zM79.53 1.13h-2.31l.01 25.79h-2.95l-8.67-22v21.16H68l-.01.84h-5.94v-.84h2.43V1.13h-2.29V.31h6.5l7.41 18.58-.01-17.76h-2.07V.31h5.52l-.01.82zM52.8 26.92v-.84h2.49l-1.79-8.34h-5l-1.41 8.33h2.62v.84h-6.22v-.84h2.4L50.5.3h4.25l5.45 25.77h1.22v.84zm.49-10.11L50.72 4.99l-2 11.82zM44.82 1.13h-2.29l.01 25.79h-3.47L30.89 5.43l-.01 20.65h2.51l.01.84h-6.12l.01-.84h2.47l-.02-24.95h-2.35l-.01-.82H34l7.44 19.15V1.13h-2.3V.31h5.69l-.01.82zM26.14.3v.83h-2.43v25h2.54v.84H16.09v-.84h3.12V1.18h-2.7V.3zM15.77 7.58h-.67c-.22-1.87-.16-3.86-1.54-5.26-1.07-1.14-3.44-1.24-5-1.28v11.3H11c1.2 0 1.52-2.61 1.47-3.94h.94v8.23h-.91c0-1.3-.21-3.51-1.48-3.5H8.61v13h2.94v.84H.65v-.84H4.1V1.18H.64V.3h15.13zM0 41.59h244.1v1H0zm.64 21.15a5.78 5.78 0 0 1 1.78-4.37 6.27 6.27 0 0 1 4.47-1.7 5.25 5.25 0 0 1 4.89 2.85l-2.15 1.07a3.17 3.17 0 0 0-1.13-1.23 2.92 2.92 0 0 0-1.61-.48 3.5 3.5 0 0 0-2.64 1.1 4.22 4.22 0 0 0 0 5.56 3.49 3.49 0 0 0 2.64 1.1 2.93 2.93 0 0 0 1.61-.5 3.32 3.32 0 0 0 1.13-1.22l2.15 1a5.28 5.28 0 0 1-4.89 2.87 6.23 6.23 0 0 1-4.46-1.7 5.77 5.77 0 0 1-1.79-4.35zm13.79 4.36a6.37 6.37 0 0 1 0-8.72 6 6 0 0 1 4.4-1.7 6 6 0 0 1 4.38 1.7 6.35 6.35 0 0 1 0 8.72 6 6 0 0 1-4.38 1.7 6 6 0 0 1-4.4-1.7zm1.81-7.1a4.44 4.44 0 0 0 0 5.55 3.3 3.3 0 0 0 2.58 1.1 3.26 3.26 0 0 0 2.57-1.1 4.42 4.42 0 0 0 0-5.55 3.25 3.25 0 0 0-2.57-1.1 3.29 3.29 0 0 0-2.58 1.1zm10.45 8.6V56.88h5.48a4 4 0 0 1 2.89 1 3.68 3.68 0 0 1 1.07 2.72 3.49 3.49 0 0 1-.77 2.39 3.35 3.35 0 0 1-1.81 1.15l2.65 4.46h-2.89L31 64.44h-1.81v4.16zm2.5-6.36h2.63a1.81 1.81 0 0 0 1.25-.43 1.48 1.48 0 0 0 .49-1.17 1.44 1.44 0 0 0-.49-1.14 1.85 1.85 0 0 0-1.25-.42h-2.63zM38 68.6V56.88h5.49a3.86 3.86 0 0 1 2.88 1.1 3.94 3.94 0 0 1 0 5.38 3.84 3.84 0 0 1-2.89 1.09h-3v4.18zm2.5-6.38h2.63a1.83 1.83 0 0 0 1.25-.43 1.58 1.58 0 0 0 .06-2.23l-.06-.06a1.87 1.87 0 0 0-1.25-.42h-2.65zm9.63 4.88a6.37 6.37 0 0 1 0-8.72 6.5 6.5 0 0 1 8.78 0 6.35 6.35 0 0 1 0 8.7 6.52 6.52 0 0 1-8.78.03zm1.81-7.1a4.44 4.44 0 0 0 0 5.55 3.58 3.58 0 0 0 5.06.1l.1-.1a4.45 4.45 0 0 0 0-5.55 3.61 3.61 0 0 0-5.1-.07l-.07.07zm10.45 8.6V56.88h5.48a4 4 0 0 1 2.89 1 3.68 3.68 0 0 1 1.07 2.72 3.54 3.54 0 0 1-.76 2.39 3.41 3.41 0 0 1-1.82 1.15l2.65 4.46H69l-2.3-4.16h-1.81v4.16zm2.5-6.36h2.63a1.81 1.81 0 0 0 1.25-.43 1.48 1.48 0 0 0 .49-1.17 1.44 1.44 0 0 0-.49-1.14 1.85 1.85 0 0 0-1.25-.42h-2.63zm7.56 6.36L77 56.88h3.1l4.51 11.72h-2.83l-.74-2H76l-.74 2zm4.25-4.18h3.65l-1.82-5zm7.14-5.34v-2.2h9.36v2.2h-3.43v9.52h-2.49v-9.52zm10.94 9.52V56.88h8.3v2.2h-5.8v2.46H103v2.19h-5.72v2.67h5.8v2.2zm13.94-1.61l1.37-2a5 5 0 0 0 3.73 1.62 2.51 2.51 0 0 0 1.51-.4 1.11 1.11 0 0 0 .52-.92.91.91 0 0 0-.5-.78 4.1 4.1 0 0 0-1.23-.5l-1.63-.4a9.45 9.45 0 0 1-1.63-.54 3.04 3.04 0 0 1-1.75-2.84 3.17 3.17 0 0 1 1.21-2.53 4.86 4.86 0 0 1 3.23-1 6.57 6.57 0 0 1 4.59 1.62l-1.4 1.86a4.83 4.83 0 0 0-3.41-1.3 2.16 2.16 0 0 0-1.22.32 1 1 0 0 0-.44.84.79.79 0 0 0 .51.69 5.28 5.28 0 0 0 1.25.47l1.61.4a9.47 9.47 0 0 1 1.63.59 3 3 0 0 1 1.74 2.86 3.42 3.42 0 0 1-1.2 2.72 5.19 5.19 0 0 1-3.49 1 6.8 6.8 0 0 1-5-1.78zm11.34-3.09v-7h2.5v7a2.78 2.78 0 0 0 .72 2 2.7 2.7 0 0 0 2 .76 2.66 2.66 0 0 0 2-.76 2.78 2.78 0 0 0 .72-2v-7h2.56v7a4.79 4.79 0 0 1-1.35 3.58 5.4 5.4 0 0 1-4 1.33 5.33 5.33 0 0 1-3.93-1.33 4.85 4.85 0 0 1-1.22-3.58zM133 68.6V56.88h6.18a3.4 3.4 0 0 1 2.49.87 2.86 2.86 0 0 1 .89 2.1 2.83 2.83 0 0 1-.58 1.8 2.47 2.47 0 0 1-1.45.9 2.45 2.45 0 0 1 1.61 1 3 3 0 0 1 .65 1.9 3.13 3.13 0 0 1-.89 2.29 3.38 3.38 0 0 1-2.52.9zm2.5-7.06h3.13a1.39 1.39 0 0 0 1-.34 1.28 1.28 0 0 0 0-1.78 1.41 1.41 0 0 0-1-.34h-3.13zm0 4.86h3.23a1.61 1.61 0 0 0 1.1-.35 1.39 1.39 0 0 0 0-1.95 1.53 1.53 0 0 0-1.1-.38h-3.23zm8.29.59l1.37-2a5 5 0 0 0 3.72 1.62 2.49 2.49 0 0 0 1.51-.4 1.12 1.12 0 0 0 .53-.92.91.91 0 0 0-.5-.78 4.17 4.17 0 0 0-1.24-.5l-1.62-.4a9.56 9.56 0 0 1-1.64-.54 3 3 0 0 1-1.75-2.82 3.18 3.18 0 0 1 1.22-2.53 4.85 4.85 0 0 1 3.23-1 6.52 6.52 0 0 1 4.58 1.62l-1.39 1.86a4.84 4.84 0 0 0-3.41-1.3 2.16 2.16 0 0 0-1.22.32 1 1 0 0 0-.44.84.79.79 0 0 0 .51.69 5.19 5.19 0 0 0 1.24.47l1.62.4a9.36 9.36 0 0 1 1.62.59 3.06 3.06 0 0 1 1.27 1.06 3.12 3.12 0 0 1 .5 1.79 3.42 3.42 0 0 1-1.2 2.72 5.23 5.23 0 0 1-3.49 1 6.8 6.8 0 0 1-5.02-1.8zm10.78-4.25a5.74 5.74 0 0 1 1.78-4.37 6.27 6.27 0 0 1 4.47-1.7 5.24 5.24 0 0 1 4.88 2.85l-2.14 1.07a3.25 3.25 0 0 0-1.13-1.23 2.94 2.94 0 0 0-1.61-.48 3.5 3.5 0 0 0-2.64 1.1 4.19 4.19 0 0 0 0 5.56 3.48 3.48 0 0 0 2.64 1.1 3 3 0 0 0 1.61-.5 3.4 3.4 0 0 0 1.13-1.22l2.14 1a5.25 5.25 0 0 1-4.88 2.87 6.24 6.24 0 0 1-4.47-1.7 5.76 5.76 0 0 1-1.78-4.35zm12.62 5.86V56.88h5.48a3.92 3.92 0 0 1 2.88 1 3.68 3.68 0 0 1 1.07 2.72 3.49 3.49 0 0 1-.76 2.34 3.41 3.41 0 0 1-1.86 1.2l2.65 4.46h-2.88l-2.3-4.16h-1.83v4.16zm2.49-6.36h2.64a1.83 1.83 0 0 0 1.25-.43 1.51 1.51 0 0 0 .49-1.17 1.47 1.47 0 0 0-.49-1.14 1.87 1.87 0 0 0-1.25-.42h-2.64zm8.8 6.36V56.88H181V68.6zm4.81 0V56.88h5.49a3.86 3.86 0 0 1 2.9 1.08 3.74 3.74 0 0 1 1 2.69 3.69 3.69 0 0 1-1.05 2.68 3.84 3.84 0 0 1-2.89 1.09h-3v4.18zm2.49-6.38h2.64a1.83 1.83 0 0 0 1.25-.43 1.58 1.58 0 0 0 .06-2.23l-.06-.06a1.87 1.87 0 0 0-1.25-.42h-2.64zm7.76-3.14v-2.2h9.36v2.2h-3.43v9.52H197v-9.52zm10.94 9.52V56.88H207V68.6zm5.99-1.5a6.37 6.37 0 0 1 0-8.72 6.5 6.5 0 0 1 8.78 0 6.35 6.35 0 0 1 0 8.7 6.5 6.5 0 0 1-8.78 0zm1.81-7.11a4.4 4.4 0 0 0 0 5.55 3.56 3.56 0 0 0 5.03.12l.12-.12a4.45 4.45 0 0 0 0-5.55 3.6 3.6 0 0 0-5.1-.07l-.06.07zm10.45 8.61V56.88h2.56l5.43 7.36v-7.36h2.5V68.6h-2.41l-5.59-7.61v7.65zm11.99-1.61l1.37-2a5 5 0 0 0 3.73 1.62 2.51 2.51 0 0 0 1.51-.4 1.13 1.13 0 0 0 .52-.92.91.91 0 0 0-.5-.78 4.1 4.1 0 0 0-1.23-.5l-1.63-.4a9.17 9.17 0 0 1-1.63-.54 3 3 0 0 1-1.75-2.82 3.17 3.17 0 0 1 1.21-2.53 4.86 4.86 0 0 1 3.23-1 6.57 6.57 0 0 1 4.59 1.62l-1.4 1.86a4.84 4.84 0 0 0-3.41-1.3 2.16 2.16 0 0 0-1.22.32 1 1 0 0 0-.44.84.79.79 0 0 0 .51.69 5.36 5.36 0 0 0 1.24.47l1.62.4a9.47 9.47 0 0 1 1.63.59 3 3 0 0 1 1.74 2.86 3.42 3.42 0 0 1-1.2 2.72 5.21 5.21 0 0 1-3.49 1 6.8 6.8 0 0 1-5-1.8z"/></svg>